<svg xmlns="http://www.w3.org/2000/svg" width="1200" height="630" viewBox="0 0 1200 630" role="img" aria-labelledby="title desc">
  <title id="title">Secure Passphrase Generator OG Image</title>
  <desc id="desc">Neobrutalist open graph card for Secure Passphrase Generator.</desc>
  <defs>
    <linearGradient id="bg" x1="0" y1="0" x2="1" y2="1">
      <stop offset="0%" stop-color="#fef3c7" />
      <stop offset="100%" stop-color="#fef08a" />
    </linearGradient>
  </defs>

  <rect width="1200" height="630" fill="url(#bg)" />
  <rect x="42" y="42" width="1116" height="546" rx="16" fill="#ffffff" stroke="#000000" stroke-width="6" />
  <rect x="84" y="92" width="640" height="94" rx="12" fill="#22c55e" stroke="#000000" stroke-width="5" />
  <text x="112" y="154" fill="#000000" font-family="'Arial Black', 'Impact', sans-serif" font-size="44" letter-spacing="1">SECURE PASSPHRASE GEN</text>

  <rect x="84" y="220" width="762" height="298" rx="14" fill="#fff7ed" stroke="#000000" stroke-width="5" />
  <text x="116" y="286" fill="#000000" font-family="'Courier New', monospace" font-size="36">wolf-candle-circuit-ember</text>
  <text x="116" y="338" fill="#000000" font-family="'Courier New', monospace" font-size="32">entropy: high  |  words: 4</text>

  <rect x="116" y="378" width="308" height="88" rx="10" fill="#ef4444" stroke="#000000" stroke-width="5" />
  <text x="154" y="434" fill="#000000" font-family="'Arial Black', 'Impact', sans-serif" font-size="34">GENERATE</text>

  <g transform="translate(886 206)">
    <rect x="0" y="0" width="220" height="312" rx="16" fill="#e0f2fe" stroke="#000000" stroke-width="5" />
    <rect x="56" y="88" width="108" height="132" rx="12" fill="#fef3c7" stroke="#000000" stroke-width="5" />
    <rect x="72" y="58" width="76" height="56" rx="28" fill="none" stroke="#000000" stroke-width="12" />
    <circle cx="110" cy="154" r="14" fill="#000000" />
    <rect x="102" y="154" width="16" height="44" rx="8" fill="#000000" />
  </g>

  <text x="84" y="564" fill="#000000" font-family="'Courier New', monospace" font-size="28">passphrase.sdad.pro</text>
</svg>
